<?xml version="1.0" standalone="no"?>
<!DOCTYPE svg PUBLIC "-//W3C//DTD SVG 20010904//EN"
 "http://www.w3.org/TR/2001/REC-SVG-20010904/DTD/svg10.dtd">
<svg version="1.0" xmlns="http://www.w3.org/2000/svg"
 width="512.000000pt" height="512.000000pt" viewBox="0 0 512.000000 512.000000"
 preserveAspectRatio="xMidYMid meet">
<metadata>
Created by potrace 1.11, written by Peter Selinger 2001-2013
</metadata>
<g transform="translate(0.000000,512.000000) scale(0.100000,-0.100000)"
fill="#000000" stroke="none">
<path d="M2768 5100 c-161 -50 -275 -194 -283 -357 -3 -73 9 -134 41 -202 22
-46 82 -111 332 -363 l306 -308 -955 -955 c-524 -525 -957 -954 -961 -952 -4
1 -143 137 -310 303 -343 340 -369 359 -515 369 -115 7 -225 -35 -305 -117
-84 -86 -117 -174 -113 -296 4 -120 38 -185 158 -309 l95 -98 -35 -40 c-19
-22 -48 -66 -64 -97 -101 -199 -62 -431 100 -594 28 -29 51 -56 51 -61 0 -5
-23 -31 -51 -58 -58 -58 -108 -137 -134 -216 -25 -74 -26 -225 -1 -297 71
-208 247 -341 459 -347 141 -4 267 45 372 146 34 33 65 59 68 59 4 0 28 -21
55 -46 106 -103 219 -154 350 -159 131 -4 245 34 343 115 l45 38 95 -93 c142
-142 253 -184 406 -155 220 42 368 282 306 495 -28 97 -53 127 -361 437 l-306
308 957 957 957 957 307 -306 c192 -190 324 -314 350 -327 133 -67 302 -59
415 21 111 78 166 178 173 314 7 130 -30 209 -160 343 l-93 96 38 44 c44 50
87 135 105 202 15 57 13 200 -4 254 -28 91 -96 195 -168 260 -13 11 -23 24
-23 29 0 4 24 32 53 63 100 105 148 213 153 345 9 223 -129 420 -347 494 -39
13 -82 18 -154 18 -86 0 -110 -4 -170 -29 -85 -34 -134 -67 -199 -133 l-49
-51 -56 56 c-170 167 -397 206 -601 103 -34 -17 -78 -46 -100 -66 -29 -26 -41
-32 -47 -22 -4 7 -47 50 -95 95 -83 79 -149 121 -213 138 -60 15 -159 13 -217
-5z m217 -210 c16 -11 119 -108 228 -217 l198 -199 -59 -12 c-102 -21 -188
-104 -214 -207 -6 -27 -13 -52 -15 -54 -1 -2 -93 86 -203 197 -214 214 -241
251 -235 326 5 59 8 70 35 109 25 36 62 63 108 78 39 12 122 1 157 -21z m812
-100 c35 -16 98 -71 240 -213 106 -105 193 -194 193 -198 0 -3 -17 -6 -37 -7
-84 -3 -163 -34 -231 -90 l-44 -35 -236 236 -235 235 33 29 c67 56 121 74 207
68 34 -2 84 -13 110 -25z m828 10 c43 -16 98 -56 122 -89 l21 -28 -41 -1 c-99
-4 -181 -44 -272 -131 l-56 -53 -80 82 -81 82 28 30 c88 92 172 131 269 124
33 -2 74 -10 90 -16z m-1317 -1425 c-97 -97 -182 -176 -189 -174 -59 8 -109
-33 -109 -89 0 -30 -10 -45 -79 -113 -61 -62 -85 -79 -108 -79 -15 0 -40 -8
-54 -18 -15 -9 -212 -202 -438 -429 -287 -287 -411 -419 -412 -435 -1 -13 -2
-30 -3 -39 -1 -9 -79 -95 -174 -190 l-173 -172 -90 89 -89 89 957 957 958 958
89 -89 89 -90 -175 -176z m-2818 -960 c29 -15 520 -494 509 -496 -2 0 -17 -3
-34 -5 -109 -18 -209 -114 -239 -229 l-11 -45 -240 242 c-132 134 -246 253
-253 266 -7 12 -15 46 -18 76 -6 57 12 107 57 155 54 57 157 73 229 36z m187
-1017 l273 -272 -24 -26 c-34 -35 -82 -121 -92 -161 -4 -19 -9 -37 -10 -41 -1
-5 -2 -27 -3 -50 l-1 -43 -230 230 c-257 256 -279 288 -285 397 -4 75 17 146
60 201 17 20 32 37 35 37 2 0 127 -122 277 -272z m-122 -611 c52 -52 95 -98
95 -103 0 -5 -19 -27 -43 -50 -23 -23 -51 -54 -63 -70 -38 -53 -74 -147 -74
-195 0 -41 -20 -37 -72 14 -67 65 -93 126 -92 217 0 94 22 145 94 223 29 31
54 57 56 57 3 0 47 -42 99 -93z"/>
</g>
</svg>
